<?xml version="1.0" encoding="UTF-8" standalone="no"?>
<!DOCTYPE svg PUBLIC "-//W3C//DTD SVG 1.1//EN"
 "http://www.w3.org/Graphics/SVG/1.1/DTD/svg11.dtd">
<!-- Generated by graphviz version 2.47.0 (20210316.0004)
 -->
<!-- Title: dependencies Pages: 1 -->
<svg width="1080pt" height="287pt"
 viewBox="0.00 0.00 1080.00 287.00" xmlns="http://www.w3.org/2000/svg" xmlns:xlink="http://www.w3.org/1999/xlink">
<g id="graph0" class="graph" transform="scale(1 1) rotate(0) translate(4 283)">
<title>dependencies</title>
<polygon fill="white" stroke="transparent" points="-4,4 -4,-283 1076,-283 1076,4 -4,4"/>
<text text-anchor="start" x="515.01" y="-42.4" font-family="Times-12" font-weight="bold" font-size="14.00">Legend</text>
<polygon fill="#ffffb3" stroke="transparent" points="302,-10 302,-30 322,-30 322,-10 302,-10"/>
<text text-anchor="start" x="325.63" y="-15.4" font-family="Times-12" font-size="14.00"> &#160;Declarations</text>
<polygon fill="#8dd3c7" stroke="transparent" points="415,-10 415,-30 435,-30 435,-10 415,-10"/>
<text text-anchor="start" x="438.73" y="-15.4" font-family="Times-12" font-size="14.00"> &#160;Module</text>
<polygon fill="#80b1d3" stroke="transparent" points="501,-10 501,-30 521,-30 521,-10 501,-10"/>
<text text-anchor="start" x="524.78" y="-15.4" font-family="Times-12" font-size="14.00"> &#160;Bootstrap</text>
<polygon fill="#fdb462" stroke="transparent" points="598,-10 598,-30 618,-30 618,-10 598,-10"/>
<text text-anchor="start" x="621.67" y="-15.4" font-family="Times-12" font-size="14.00"> &#160;Providers</text>
<polygon fill="#fb8072" stroke="transparent" points="694,-10 694,-30 714,-30 714,-10 694,-10"/>
<text text-anchor="start" x="717.73" y="-15.4" font-family="Times-12" font-size="14.00"> &#160;Exports</text>
<g id="clust1" class="cluster">
<title>cluster_AppModule</title>
<polygon fill="none" stroke="black" stroke-dasharray="1,5" points="162,-70 162,-271 524,-271 524,-70 162,-70"/>
</g>
<g id="clust3" class="cluster">
<title>cluster_AppModule_imports</title>
<polygon fill="none" stroke="black" points="308,-78 308,-206 516,-206 516,-78 308,-78"/>
</g>
<g id="clust6" class="cluster">
<title>cluster_AppModule_providers</title>
<polygon fill="none" stroke="black" points="170,-154 170,-206 300,-206 300,-154 170,-154"/>
</g>
<g id="clust7" class="cluster">
<title>cluster_AuthModule</title>
<polygon fill="none" stroke="black" stroke-dasharray="1,5" points="532,-146 532,-214 796,-214 796,-146 532,-146"/>
</g>
<g id="clust10" class="cluster">
<title>cluster_AuthModule_exports</title>
<polygon fill="none" stroke="black" points="682,-154 682,-206 788,-206 788,-154 682,-154"/>
</g>
<g id="clust12" class="cluster">
<title>cluster_AuthModule_providers</title>
<polygon fill="none" stroke="black" points="540,-154 540,-206 674,-206 674,-154 540,-154"/>
</g>
<g id="clust13" class="cluster">
<title>cluster_PostModule</title>
<polygon fill="none" stroke="black" stroke-dasharray="1,5" points="8,-70 8,-138 154,-138 154,-70 8,-70"/>
</g>
<g id="clust18" class="cluster">
<title>cluster_PostModule_providers</title>
<polygon fill="none" stroke="black" points="16,-78 16,-130 146,-130 146,-78 16,-78"/>
</g>
<g id="clust19" class="cluster">
<title>cluster_UserModule</title>
<polygon fill="none" stroke="black" stroke-dasharray="1,5" points="804,-146 804,-214 1064,-214 1064,-146 804,-146"/>
</g>
<g id="clust22" class="cluster">
<title>cluster_UserModule_exports</title>
<polygon fill="none" stroke="black" points="952,-154 952,-206 1056,-206 1056,-154 952,-154"/>
</g>
<g id="clust24" class="cluster">
<title>cluster_UserModule_providers</title>
<polygon fill="none" stroke="black" points="812,-154 812,-206 944,-206 944,-154 812,-154"/>
</g>
<!-- AuthModule -->
<g id="node1" class="node">
<title>AuthModule</title>
<polygon fill="#8dd3c7" stroke="black" points="403.55,-122 400.55,-126 379.55,-126 376.55,-122 316.45,-122 316.45,-86 403.55,-86 403.55,-122"/>
<text text-anchor="middle" x="360" y="-99.8" font-family="Times,serif" font-size="14.00">AuthModule</text>
</g>
<!-- AppModule -->
<g id="node4" class="node">
<title>AppModule</title>
<polygon fill="#8dd3c7" stroke="black" points="429.66,-263 426.66,-267 405.66,-267 402.66,-263 346.34,-263 346.34,-227 429.66,-227 429.66,-263"/>
<text text-anchor="middle" x="388" y="-240.8" font-family="Times,serif" font-size="14.00">AppModule</text>
</g>
<!-- AuthModule&#45;&gt;AppModule -->
<g id="edge1" class="edge">
<title>AuthModule&#45;&gt;AppModule</title>
<path fill="none" stroke="black" d="M403.74,-110C407.47,-110 409.85,-110 409.85,-110 409.85,-110 409.85,-216.79 409.85,-216.79"/>
<polygon fill="black" stroke="black" points="406.35,-216.79 409.85,-226.79 413.35,-216.79 406.35,-216.79"/>
</g>
<!-- AuthService  -->
<g id="node6" class="node">
<title>AuthService </title>
<polygon fill="#fb8072" stroke="black" points="779.98,-198 690.02,-198 690.02,-162 779.98,-162 779.98,-198"/>
<text text-anchor="middle" x="735" y="-175.8" font-family="Times,serif" font-size="14.00">AuthService </text>
</g>
<!-- AuthModule&#45;&gt;AuthService  -->
<g id="edge5" class="edge">
<title>AuthModule&#45;&gt;AuthService </title>
<path fill="none" stroke="black" stroke-dasharray="5,2" d="M358.03,-122.11C358.03,-131.9 358.03,-142 358.03,-142 358.03,-142 735,-142 735,-142 735,-142 735,-151.89 735,-151.89"/>
<polygon fill="black" stroke="black" points="731.5,-151.89 735,-161.89 738.5,-151.89 731.5,-151.89"/>
</g>
<!-- PostModule -->
<g id="node2" class="node">
<title>PostModule</title>
<polygon fill="#8dd3c7" stroke="black" points="399.67,-198 396.67,-202 375.67,-202 372.67,-198 316.33,-198 316.33,-162 399.67,-162 399.67,-198"/>
<text text-anchor="middle" x="358" y="-175.8" font-family="Times,serif" font-size="14.00">PostModule</text>
</g>
<!-- PostModule&#45;&gt;AppModule -->
<g id="edge2" class="edge">
<title>PostModule&#45;&gt;AppModule</title>
<path fill="none" stroke="black" d="M373,-198.11C373,-198.11 373,-216.99 373,-216.99"/>
<polygon fill="black" stroke="black" points="369.5,-216.99 373,-226.99 376.5,-216.99 369.5,-216.99"/>
</g>
<!-- UserModule -->
<g id="node3" class="node">
<title>UserModule</title>
<polygon fill="#8dd3c7" stroke="black" points="507.98,-122 504.98,-126 483.98,-126 480.98,-122 422.02,-122 422.02,-86 507.98,-86 507.98,-122"/>
<text text-anchor="middle" x="465" y="-99.8" font-family="Times,serif" font-size="14.00">UserModule</text>
</g>
<!-- UserModule&#45;&gt;PostModule -->
<g id="edge7" class="edge">
<title>UserModule&#45;&gt;PostModule</title>
<path fill="none" stroke="black" d="M424.62,-122.2C424.62,-146.36 424.62,-186 424.62,-186 424.62,-186 409.81,-186 409.81,-186"/>
<polygon fill="black" stroke="black" points="409.81,-182.5 399.81,-186 409.81,-189.5 409.81,-182.5"/>
</g>
<!-- UserModule&#45;&gt;AppModule -->
<g id="edge3" class="edge">
<title>UserModule&#45;&gt;AppModule</title>
<path fill="none" stroke="black" d="M427.22,-122.14C427.22,-122.14 427.22,-216.93 427.22,-216.93"/>
<polygon fill="black" stroke="black" points="423.72,-216.92 427.22,-226.93 430.72,-216.93 423.72,-216.92"/>
</g>
<!-- UserService  -->
<g id="node9" class="node">
<title>UserService </title>
<polygon fill="#fb8072" stroke="black" points="1047.9,-198 960.1,-198 960.1,-162 1047.9,-162 1047.9,-198"/>
<text text-anchor="middle" x="1004" y="-175.8" font-family="Times,serif" font-size="14.00">UserService </text>
</g>
<!-- UserModule&#45;&gt;UserService  -->
<g id="edge9" class="edge">
<title>UserModule&#45;&gt;UserService </title>
<path fill="none" stroke="black" stroke-dasharray="5,2" d="M508.2,-98C636.1,-98 1004,-98 1004,-98 1004,-98 1004,-151.8 1004,-151.8"/>
<polygon fill="black" stroke="black" points="1000.5,-151.8 1004,-161.8 1007.5,-151.8 1000.5,-151.8"/>
</g>
<!-- AppService -->
<g id="node5" class="node">
<title>AppService</title>
<ellipse fill="#fdb462" stroke="black" cx="235" cy="-180" rx="56.74" ry="18"/>
<text text-anchor="middle" x="235" y="-175.8" font-family="Times,serif" font-size="14.00">AppService</text>
</g>
<!-- AppService&#45;&gt;AppModule -->
<g id="edge4" class="edge">
<title>AppService&#45;&gt;AppModule</title>
<path fill="none" stroke="black" d="M235,-198.11C235,-217.34 235,-245 235,-245 235,-245 336.19,-245 336.19,-245"/>
<polygon fill="black" stroke="black" points="336.19,-248.5 346.19,-245 336.19,-241.5 336.19,-248.5"/>
</g>
<!-- AuthService -->
<g id="node7" class="node">
<title>AuthService</title>
<ellipse fill="#fdb462" stroke="black" cx="607" cy="-180" rx="59.11" ry="18"/>
<text text-anchor="middle" x="607" y="-175.8" font-family="Times,serif" font-size="14.00">AuthService</text>
</g>
<!-- AuthService&#45;&gt;AuthModule -->
<g id="edge6" class="edge">
<title>AuthService&#45;&gt;AuthModule</title>
<path fill="none" stroke="black" d="M550.96,-174C494.59,-174 415.93,-174 415.93,-174 415.93,-174 415.93,-98 415.93,-98 415.93,-98 413.8,-98 413.8,-98"/>
<polygon fill="black" stroke="black" points="413.8,-94.5 403.8,-98 413.8,-101.5 413.8,-94.5"/>
</g>
<!-- PostService -->
<g id="node8" class="node">
<title>PostService</title>
<ellipse fill="#fdb462" stroke="black" cx="81" cy="-104" rx="56.76" ry="18"/>
<text text-anchor="middle" x="81" y="-99.8" font-family="Times,serif" font-size="14.00">PostService</text>
</g>
<!-- PostService&#45;&gt;PostModule -->
<g id="edge8" class="edge">
<title>PostService&#45;&gt;PostModule</title>
<path fill="none" stroke="black" d="M137.82,-104C203.86,-104 303.89,-104 303.89,-104 303.89,-104 303.89,-180 303.89,-180 303.89,-180 306.17,-180 306.17,-180"/>
<polygon fill="black" stroke="black" points="306.17,-183.5 316.17,-180 306.17,-176.5 306.17,-183.5"/>
</g>
<!-- UserService -->
<g id="node10" class="node">
<title>UserService</title>
<ellipse fill="#fdb462" stroke="black" cx="878" cy="-180" rx="58.44" ry="18"/>
<text text-anchor="middle" x="878" y="-175.8" font-family="Times,serif" font-size="14.00">UserService</text>
</g>
<!-- UserService&#45;&gt;UserModule -->
<g id="edge10" class="edge">
<title>UserService&#45;&gt;UserModule</title>
<path fill="none" stroke="black" d="M878,-161.97C878,-141.23 878,-110 878,-110 878,-110 518.03,-110 518.03,-110"/>
<polygon fill="black" stroke="black" points="518.03,-106.5 508.03,-110 518.03,-113.5 518.03,-106.5"/>
</g>
</g>
</svg>
